<svg xmlns="http://www.w3.org/2000/svg" viewBox="0 0 2379.22 1973.16"><defs><style>.cls-1{isolation:isolate;}.cls-2{fill:#2d2d2d;}.cls-3{fill:#20375e;}.cls-4{fill:#1e487a;}.cls-5{fill:#fdc094;}.cls-6{fill:#ee8957;}.cls-7{fill:#561712;}.cls-8{fill:#231f20;}.cls-9{fill:#fff;}.cls-10{fill:#3a3a3a;}.cls-11{fill:#242424;}.cls-12{fill:#333;}.cls-13{fill:#e3e7ea;opacity:0.5;}.cls-14{fill:#1e1e1e;}.cls-15{fill:#943535;}.cls-16{fill:#363636;mix-blend-mode:multiply;}</style></defs><g class="cls-1"><g id="Warstwa_2" data-name="Warstwa 2"><g id="Layer_1" data-name="Layer 1"><polygon class="cls-2" points="1234.32 797.86 1158.08 1930.53 1301.79 1930.53 1532.76 1728.07 1604.02 775.34 1514.8 695.5 1234.32 797.86"/><path class="cls-3" d="M984.42,937.21c-107.79,85.55-113.77,257.49-113.77,257.49l-22.24,755.36h331.05s12.83-221.56,28.8-462.79c1.77-26.73,3.9-56.09,6.28-87.24h0s-81.27-303.7-78.71-320,71.86-33.36,72.43-46.19-67.29-74.42-68.15-90.68,104.37-139.43,125-209.3C1238.72,788.07,1092.21,851.67,984.42,937.21Z"/><path class="cls-4" d="M1543.51,689.44c-5.62,8-11.6,46.68-11.6,46.68l19.67-8.49c13,83-32.29,367.69-64,705.85.19-.38,153.52-308.93,152.38-322.61s-73-42.2-69.08-53.61,100.44-51.89,104.72-66.15S1626.29,766.41,1543.51,689.44Z"/><path class="cls-4" d="M1140.11,943.2c.86,16.26,68.72,77.85,68.15,90.68s-69.86,29.94-72.43,46.19,78.71,320,78.71,320h0c19.07-250,54.28-615.42,50.58-666.13C1244.48,803.77,1139.26,927,1140.11,943.2Z"/><path class="cls-5" d="M1514.8,537.07c-2-41.55-30.51-37.52-30.51-37.52L1271,703.11l-5.87,30.79a742.85,742.85,0,0,0-4.31,99.85c23.87,53.56,98,68.39,180.7,50.71S1563,785.23,1551.58,727.63,1516.79,578.63,1514.8,537.07Z"/><path class="cls-3" d="M1940.81,897c-98.38-74.42-340.35-151.66-397.3-207.57,82.78,77,136.39,287.41,132.11,301.67s-100.8,54.75-104.72,66.15,67.94,39.92,69.08,53.61-152.19,322.23-152.38,322.61c-7.8,83.29-14.78,169.81-19.85,257.38-56.46-12-217.29-37.64-220.71-22.24s-12,281.44-12,281.44h881.11s0-348.16-15.4-618.48S2039.19,971.43,1940.81,897Z"/><path class="cls-6" d="M1484.29,499.55,1271,703.11l-5.87,30.79c-1.45,13.2-2.45,25.76-3.14,37.28,95.45,17.74,237.2-30.84,252.82-234.11C1512.8,495.52,1484.29,499.55,1484.29,499.55Z"/><path class="cls-7" d="M1540.89,108.29c34.64-1.14,43.77-45.06-26.09-43.91-3.14-54.75-52.19-77-44.2-20C1409-21.74,1277.84-1.78,1219.1,26.17s-60.45,60.45-12,67.29c-86.11,17.11-162,101.51-98.66,110.64-70.72,29.08-84.4,159.11,22.81,120.33s307.11,186.49,409.62,187.06l13.59,3.3c54-15.14,87.78-91.27,72.38-159.71,29.94,8.56,47.33-66.58,10.27-143.57S1540.89,108.29,1540.89,108.29Z"/><path class="cls-5" d="M1492.84,428.8C1478,322.15,1386.19,325,1412.43,242.31c-127.75,79.27-170.52,52.47-141.44,2.85,0,0-63.3,49.62-139.72,79.27-4,14.83-16.54,140.29,15.4,257.2S1230.5,755,1334.3,730.48s162.53-119.19,168.24-193.33c33.64,5.7,86.11-40.49,89-108.35S1516.79,349.52,1492.84,428.8Z"/><path class="cls-8" d="M1137.61,350.62a45.63,45.63,0,0,0-10,2.49c-.49,5.94-.93,12.62-1.29,20a65.75,65.75,0,0,1,21.62-2.35c12.49.6,29.25,18.2,32.24,5S1159.61,347.7,1137.61,350.62Z"/><path class="cls-6" d="M1210.85,525.29c-5.72-1-12.76-4.06-12.91-6.39-.24-3.65,6.45-11.47,11.39-15.71a4.8,4.8,0,0,0-6.26-7.28c-2.58,2.2-15.37,13.72-14.71,23.63.75,11.23,17.52,14.64,20.88,15.21a4.43,4.43,0,0,0,.81.07,4.8,4.8,0,0,0,.8-9.53Z"/><path class="cls-9" d="M1267.86,594.47c-23.67,14.82-59.6,7.41-59.6,7.41,4,13.69,18.54,32.22,54.18,26S1291.53,579.64,1267.86,594.47Z"/><path class="cls-6" d="M1548.34,394c-24-.29-42.11,39-46.28,68.5l-.13.3a2.41,2.41,0,0,0-.11,1.54c-.07.59-.14,1.18-.2,1.76-2.35,22.43,3.07,36.6,14.9,38.88a26.28,26.28,0,0,0,4.89.48c13.6,0,22.57-11.59,26.6-23.36,5.34-15.62,3.73-35.4-8.22-41.47a20.13,20.13,0,0,0-16.59-1.26c-5.76,2.11-10.45,6.63-14,11.14,6.67-26.89,22.23-51.71,38.68-51.71h.32c7.65.15,13,2.56,16.31,7.38,9,13.06-.2,39.15-.29,39.41a2.4,2.4,0,0,0,4.52,1.63c.41-1.17,10.12-28.67-.28-43.76C1564.31,397.35,1557.53,394.17,1548.34,394Zm-23.48,49.87a15.34,15.34,0,0,1,12.75,1c9.51,4.82,10.44,22.25,5.85,35.63-1.87,5.44-9.29,22.94-26,19.72-8.94-1.72-13.07-14.3-11-33.65.09-.91.2-1.82.31-2.74C1508.29,460.51,1515,447.49,1524.86,443.86Z"/><path class="cls-8" d="M1297.6,333.64c-26.68-.95-53.36,16-48.36,28.82s23.21-6.15,38.11-7.86c31.21-3.57,42.48,7.94,46.53,1.51S1324.27,334.59,1297.6,333.64Z"/><ellipse class="cls-8" cx="1297.8" cy="419.67" rx="23.12" ry="27.37"/><path class="cls-8" d="M1142.65,409.06c-10.57.94-18.05,13.91-16.71,29s11,26.5,21.57,25.56,18-13.91,16.71-29S1153.22,408.12,1142.65,409.06Z"/><path class="cls-9" d="M1306.35,323.05A96.62,96.62,0,1,0,1403,419.67,96.73,96.73,0,0,0,1306.35,323.05Zm0,183.64a87,87,0,1,1,87-87A87.11,87.11,0,0,1,1306.35,506.69Z"/><path class="cls-9" d="M1122,336.34c-39.15,0-71,41.1-71,91.62s31.86,91.63,71,91.63,71-41.11,71-91.63S1161.19,336.34,1122,336.34ZM1122,510c-33.86,0-61.41-36.8-61.41-82s27.55-82,61.41-82,61.42,36.8,61.42,82S1155.9,510,1122,510Z"/><path class="cls-9" d="M1513.89,381.17l-117.32,22.58a4.8,4.8,0,0,0,.9,9.51,4.86,4.86,0,0,0,.92-.09l117.31-22.58a4.8,4.8,0,1,0-1.81-9.42Z"/><path class="cls-9" d="M1214,414.9l-26.41,3a4.8,4.8,0,0,0,.53,9.57,4.93,4.93,0,0,0,.55,0l26.42-3a4.8,4.8,0,0,0-1.09-9.54Z"/><path class="cls-4" d="M1833.15,1137.88c-1.18,1.47-29.12,38.23-39.31,235.2-10.15,196.3-4.15,371.52-4.09,373.26a2.41,2.41,0,0,0,2.4,2.32h.09a2.39,2.39,0,0,0,2.31-2.48c-.06-1.75-6.06-176.76,4.08-372.85,10-193.9,37.85-231.92,38.26-232.45a2.4,2.4,0,0,0-3.74-3Z"/><path class="cls-4" d="M1770.4,1158.33a2.29,2.29,0,0,0-2.55-2.24,2.42,2.42,0,0,0-2.24,2.56c.15,2.17,4,53.51,41.43,82.68a2.36,2.36,0,0,0,1.47.5,2.4,2.4,0,0,0,1.47-4.29C1774.23,1209.72,1770.44,1158.84,1770.4,1158.33Z"/><path class="cls-5" d="M1020.3,1636.11,1049,1816.9c34.36,22.24,63.32,21.77,100.51,16.54s89.73,9.68,89.73,9.68l6.58-150.55s-72.93-21.67-123.11-41.63S1020.3,1636.11,1020.3,1636.11Z"/><path class="cls-4" d="M1855.76,1756.09c-105.76-22.59-532.79-90.56-537-91.24-40.7-6.44-65.83-4.42-72,.19a4.85,4.85,0,0,0-2.1,3.28c-.65,5.19-10.28,232.89-10.7,242.58a2.4,2.4,0,0,0,2.3,2.5h.1a2.4,2.4,0,0,0,2.4-2.3c3.47-81.92,10.15-238,10.6-242,1.58-2.42,21.53-7,68.61.46,4.25.67,431.15,68.62,536.79,91.19a2.4,2.4,0,0,0,1-4.7Z"/><path class="cls-6" d="M1091.35,1725.68c-19.14,0-42.4,11-43.38,11.47a2.4,2.4,0,1,0,2.07,4.33c.23-.11,23.24-11,41.31-11a2.4,2.4,0,1,0,0-4.8Z"/><path class="cls-10" d="M21,1158.49h0a21,21,0,0,0-20.82,23.7H949.43l23.4,2.22-2.58-25.92Z"/><polygon class="cls-11" points="949.43 1182.19 0.18 1182.19 99.76 1950.06 122.99 1950.06 142.1 1950.06 1049.01 1950.06 972.83 1184.41 949.43 1182.19"/><path class="cls-12" d="M984.11,1163.71a21,21,0,0,0-34.68,18.48L1049,1950.06h42.34L991.07,1176.79A21,21,0,0,0,984.11,1163.71Z"/><path class="cls-12" d="M1495,1914.72a19.43,19.43,0,0,0-11.46-3.72H1065.12L1049,1950.06h434.57a19.53,19.53,0,0,0,19.53-19.53h0A19.5,19.5,0,0,0,1495,1914.72Z"/><path class="cls-13" d="M1306.35,332.65a87,87,0,1,0,87,87A87.11,87.11,0,0,0,1306.35,332.65Z"/><ellipse class="cls-13" cx="1122.03" cy="427.96" rx="61.41" ry="82.02"/><path class="cls-14" d="M2367.76,1950.06H20.65a11.45,11.45,0,0,0-10.15,6.17,11.6,11.6,0,0,0,4.76,15.58,11.39,11.39,0,0,0,5.39,1.35H2367.76a11.38,11.38,0,0,0,6.53-2.05,11.63,11.63,0,0,0,1.58-17.67A11.39,11.39,0,0,0,2367.76,1950.06Z"/><path class="cls-15" d="M1989.31,243.78A93,93,0,0,0,1929,221.69h-76.89a93.37,93.37,0,0,0-72.94,151.65c.66.82,1.41,1.55,2.1,2.34v77.77l47.94-47.94a93,93,0,0,0,22.9,2.91H1929a93.36,93.36,0,0,0,60.31-164.64Z"/><path class="cls-9" d="M1809.82,296.33A18.13,18.13,0,1,0,1828,314.45,18.12,18.12,0,0,0,1809.82,296.33Z"/><path class="cls-9" d="M1890.56,296.33a18.13,18.13,0,1,0,18.12,18.12A18.13,18.13,0,0,0,1890.56,296.33Z"/><path class="cls-9" d="M1971.29,296.33a18.13,18.13,0,1,0,18.12,18.12A18.12,18.12,0,0,0,1971.29,296.33Z"/><circle class="cls-16" cx="323.73" cy="968.3" r="35.36" transform="translate(-28.11 9.86) rotate(-1.67)"/><circle class="cls-16" cx="962.46" cy="724.21" r="87.21" transform="translate(-103.58 163.52) rotate(-9.22)"/><path class="cls-16" d="M1721.62,603.76A25.33,25.33,0,1,0,1747,629.09,25.33,25.33,0,0,0,1721.62,603.76Z"/><path class="cls-16" d="M2083.55,491.12a23.67,23.67,0,1,0,23.66,23.67A23.66,23.66,0,0,0,2083.55,491.12Z"/><circle class="cls-16" cx="848.41" cy="397.17" r="26.85"/><circle class="cls-16" cx="683.54" cy="833.71" r="22.28" transform="translate(-389.32 727.52) rotate(-45)"/><path class="cls-16" d="M257.58,633.9a20.52,20.52,0,1,0,20.52,20.52A20.52,20.52,0,0,0,257.58,633.9Z"/><circle class="cls-16" cx="2135.09" cy="888.15" r="35.36" transform="translate(-25 62.66) rotate(-1.67)"/><path class="cls-16" d="M2271.3,1285.87a23.66,23.66,0,1,0,23.67,23.66A23.66,23.66,0,0,0,2271.3,1285.87Z"/><circle class="cls-16" cx="2249.88" cy="1696.72" r="87.21" transform="translate(-242.73 382.3) rotate(-9.22)"/></g></g></g></svg>