<svg xmlns="http://www.w3.org/2000/svg" viewBox="0 0 1765.43 848.71"><defs><style>.cls-1{fill:#1e487a;}.cls-2{fill:#20375e;}.cls-3{fill:#142742;}.cls-4{fill:none;stroke:#1e1e1e;stroke-miterlimit:10;stroke-width:10px;stroke-dasharray:20.13 20.13;}</style></defs><g id="Warstwa_2" data-name="Warstwa 2"><g id="Layer_1" data-name="Layer 1"><polygon class="cls-1" points="1195.33 167.5 1765.43 0 1351.33 226.8 1195.33 167.5"/><polygon class="cls-2" points="1765.43 0 1351.33 226.8 1417.83 368.5 1765.43 0"/><polygon class="cls-1" points="1765.43 0 1435.33 256.5 1568.03 438.7 1765.43 0"/><polygon class="cls-3" points="1417.83 368.5 1435.33 256.5 1473.73 309.2 1417.83 368.5"/><path class="cls-4" d="M1351.73,412.8c-62.6,55.1-247.4,199.7-416.4,156.1-207.5-53.4-166.3-275.2-43.8-274.8S1088.93,508,1022.93,649s-270,243-552.1,171C241.53,761.5,51.83,520.3,4,455.1"/></g></g></svg>