
<svg xmlns="http://www.w3.org/2000/svg" width="1570.924" height="1080" viewBox="0 0 1570.924 1080">
  <path  d="M1131.043,41.878c115.871,39.585,252.25,63.944,311.723,125.6s42.042,161.383,9.229,247.4c-32.813,85.259-79.982,156.816-127.15,234.462-47.169,76.885-94.337,159.861-178.421,235.223s-204.056,143.113-312.749,128.65C723.957,998.758,626.543,902.842,516.825,838.9,407.106,774.192,286.109,742.22,166.136,679.037,46.164,616.615-72.783,522.221-87.139,422.5-102.52,322.015-13.31,215.441,100.51,143.885S351.734,35.788,475.809.01c124.074-36.54,235.843-73.079,339.409-63.183S1015.172,2.294,1131.043,41.878Z" transform="translate(88.869 64.816)" fill="#363636"/>
</svg>
